<?xml version="1.0" encoding="utf-8"?>
<!-- Generator: Adobe Illustrator 26.0.1, SVG Export Plug-In . SVG Version: 6.00 Build 0)  -->
<svg version="1.1" id="Layer_1" xmlns="http://www.w3.org/2000/svg" xmlns:xlink="http://www.w3.org/1999/xlink" x="0px" y="0px"
	 viewBox="0 0 326 282" style="enable-background:new 0 0 326 282;" xml:space="preserve">
<style type="text/css">
	.st0{fill-rule:evenodd;clip-rule:evenodd;fill:#FFFFFF;}
	.st1{fill:#232F3E;}
</style>
<desc>Created with Sketch.</desc>
<g id="Research-Areas">
	<g id="Desktop-HD" transform="translate(-126.000000, -1632.000000)">
		<g id="Cloud_00000120517143803380187880000005425331841169891762_" transform="translate(126.000000, 1632.000000)">
			<rect id="Rectangle-Copy-11" class="st0" width="326" height="282"/>
			<g>
				<path class="st1" d="M214.7,194.1c2.3,4.4,4.7,8.7,7.1,13.2c-2.8,2.2-5.5,4.4-8.3,6.6c-3.8-3.3-7.5-6.6-11.2-9.9
					c-1.9,1-3.7,1.9-5.5,2.9c-2.3,1.3-2.2,1.3-1.8,3.8c0.6,3.8,1.1,7.6,1.6,11.4c0,0.2,0,0.4,0,0.6c-0.9,0.8-8.1,3.4-9.9,3.6
					c-1.1-2-2.3-4.1-3.5-6.3c-1.2-2.1-2.4-4.3-3.6-6.5c-2.9,0.5-5.7,1-8.6,1.4c-0.9,4.7-1.7,9.2-2.6,13.9c-3.6,0-7.1,0-10.9,0
					c-0.9-4.5-1.8-9-2.7-13.7c-2.8-0.5-5.6-1.1-8.5-1.7c-2.4,4.3-4.7,8.6-7,12.9c-2-0.7-3.8-1.4-5.5-2c-1.2-0.4-2.4-0.9-3.6-1.3
					c-0.8-0.2-1.1-0.7-0.9-1.5c0.6-4,1.1-8.1,1.6-12.1c0.1-0.7,0.1-1.2-0.6-1.5c-2.2-1.2-4.4-2.5-6.8-3.8c-3.5,3.2-7,6.4-10.5,9.6
					c-2.9-2.2-5.8-4.3-8.8-6.6c2.2-4.2,4.4-8.5,6.7-12.8c-1.1-1.2-2.1-2.4-3.1-3.5c-0.7-0.8-1.5-1.5-2.2-2.3
					c-0.5-0.6-1.1-0.6-1.8-0.3c-3.7,1.7-7.4,3.3-11.1,5c-0.2,0.1-0.4,0.1-0.8,0.2c-2-3-4-6-6.1-9.1c3.5-3.3,6.8-6.5,10.3-9.7
					c-1.3-2.7-2.5-5.4-3.8-8.1c-3,0.2-5.8,0.5-8.6,0.7c-1.4,0.1-2.8,0.2-4.3,0.3c-0.7,0-0.9-0.4-1.1-0.9c-0.6-2.3-1.2-4.6-1.8-6.8
					c0,0,0-0.1,0-0.1c-0.9-2.9-0.8-2.6,1.9-3.9c3-1.5,6-2.8,8.9-4.3c0.4-0.2,0.9-0.7,0.9-1.1c-0.1-2.7-0.3-5.3-0.5-8.1
					c-1.9-0.5-3.8-1.1-5.6-1.6c-2.3-0.7-4.7-1.3-7-2c-0.4-0.1-0.9-0.7-0.8-1c0.3-3.2,0.6-6.5,1-10c4.5-0.5,8.9-1.1,13.3-1.6
					c0.7-2.9,1.4-5.8,2.2-8.7c-3.8-2.5-7.5-5-11.2-7.6c1.4-3.3,2.7-6.6,4.1-10c4.5,1,8.8,2,13.3,3.1c1.6-2.5,3.2-5.1,4.8-7.8
					c-1.1-1.5-2.2-2.9-3.3-4.3c-1.4-1.8-2.8-3.7-4.1-5.5c-0.4-0.6-0.5-1,0-1.6c1.9-2.2,3.7-4.3,5.6-6.5c0.3-0.3,0.6-0.6,0.9-0.9
					c2,1.2,4,2.4,6,3.6c1.5,0.9,3.1,1.9,4.6,2.8c0.5,0.3,1,0.4,1.5,0c1.8-1.5,3.6-2.9,5.5-4.3c0.8-0.6,0.9-1.3,0.6-2.3
					c-1.2-3.4-2.3-6.8-3.4-10.2c-0.2-0.6-0.3-1.2,0.4-1.6c2.7-1.6,5.4-3.2,8-4.7c0.1-0.1,0.3-0.1,0.6-0.1c2.8,3.4,5.6,6.8,8.4,10.3
					c3-1,5.8-2,8.8-3c0-0.4,0.1-0.8,0.1-1.3c0-3.6,0-7.3,0-10.9c0-1.4,0.2-1.5,1.5-1.7c2.1-0.4,4.2-0.8,6.3-1.2
					c0.7-0.1,1.5-0.3,2.2-0.3c0.7-0.1,0.9,0.4,1.1,1c1.2,3.4,2.5,6.8,3.7,10.1c0.3,0.8,0.7,1.2,1.6,1.2c2.4,0,4.8,0,7.2,0
					c0.3,0,0.7-0.1,1.1-0.1c0.8-2.1,1.5-4.3,2.3-6.4c0.6-1.7,1.3-3.4,1.9-5.2c0.3-0.8,0.7-1,1.4-0.9c1.7,0.2,3.3,0.5,5,0.8
					c1,0.2,2.1,0.3,3.1,0.4c1,0.1,1.4,0.7,1.4,1.7c0,3.6,0,7.3,0,10.9c0,0.5,0.1,1,0.1,1.5c3,1,5.9,2,9.1,3.1
					c2.8-3.6,5.7-7.1,8.5-10.7c2,1,3.8,1.8,5.6,2.7c0.9,0.5,1.8,1,2.7,1.4c1,0.4,1.2,1,0.9,2c-0.9,2.6-1.7,5.2-2.5,7.8
					c-0.4,1.2-0.8,2.4-1.2,3.5c-0.2,0.6,0,1.1,0.5,1.5c2,1.6,3.9,3.1,5.9,4.7c0.6,0.5,1.2,0.2,1.7-0.1c2.2-1.4,4.4-2.9,6.6-4.3
					c1.4-0.9,2.8-1.7,4.4-2.7c2.5,2.4,4.9,4.8,7.4,7.3c-1,1.3-1.8,2.5-2.7,3.6c-1.8,2.4-3.6,4.8-5.5,7.2c-0.5,0.7-0.5,1.2-0.1,1.9
					c1.3,2,2.5,4,3.7,6.1c0.4,0.7,0.9,0.9,1.7,0.7c4-1,8-2.1,12.1-3c0.4-0.1,1.2,0.1,1.3,0.4c1.4,2.9,2.7,5.9,4.1,9
					c-4,2.7-7.9,5.4-12,8.2c0.7,3,1.5,5.9,2.3,8.9c0.8,0.1,1.5,0.2,2.2,0.3c3.7,0.4,7.5,0.7,11.2,1c0.9,0.1,1.2,0.5,1.3,1.4
					c0.2,2.8,0.5,5.5,0.8,8.3c0.1,0.7-0.2,1.1-0.9,1.3c-4,1.1-8,2.3-12,3.4c-0.8,0.2-1.2,0.6-1.3,1.4c-0.1,2.4-0.2,4.9-0.4,7.3
					c0,0.7,0.5,1,1,1.3c3.6,1.6,7.2,3.2,10.8,4.8c1.3,0.6,1.4,0.7,1,2.1c-0.6,2.3-1.1,4.7-1.6,7c-0.4,1.8-0.6,2-2.5,1.9
					c-3.8-0.3-7.5-0.6-11.3-0.9c-0.4,0-0.9,0-1.5,0c-1.2,2.7-2.5,5.3-3.8,8.2c3.6,3.4,7.1,6.8,10.7,10.2c-0.2,0.4-0.3,0.7-0.5,1
					c-1.5,2.4-3.1,4.7-4.5,7.1c-0.4,0.6-0.8,0.8-1.5,0.5c-3.5-1.5-7-3.1-10.5-4.6c-2.8-1.2-2.1-1.3-4,0.8c-1.2,1.3-2.3,2.6-3.5,3.8
					C215.3,193.4,215.1,193.7,214.7,194.1z M162.2,89.8c-18.1,0.1-35.9,11.3-44,27.6c-13,25.9-0.6,59.2,26.5,69.8
					c21,8.5,45.5,1.4,58.7-17.1C227.3,136.3,204.4,89.5,162.2,89.8z"/>
				<path class="st1" d="M195.4,144.8H148v-10.7h47.4c1.2,0,2.3-1,2.3-2.3s-1-2.3-2.3-2.3H148v-26.1c0-1.2-1-2.2-2.2-2.2
					s-2.2,1-2.2,2.2v28.1c0,0.1,0,0.2,0,0.2s0,0.2,0,0.2v14.8c0,0.1,0,0.2,0,0.2s0,0.2,0,0.2v29c0,1.2,1,2.2,2.2,2.2s2.2-1,2.2-2.2
					v-27h47.4c1.2,0,2.3-1,2.3-2.3S196.7,144.8,195.4,144.8z"/>
			</g>
		</g>
	</g>
</g>
</svg>
