<?xml version="1.0" encoding="UTF-8"?>
<svg width="326px" height="282px" viewBox="0 0 326 282" version="1.1" xmlns="http://www.w3.org/2000/svg" xmlns:xlink="http://www.w3.org/1999/xlink">
    <!-- Generator: Sketch 61 (89581) - https://sketch.com -->
    <title>Cloud</title>
    <desc>Created with Sketch.</desc>
    <g id="Research-Areas" stroke="none" stroke-width="1" fill="none" fill-rule="evenodd">
        <g id="Desktop-HD" transform="translate(-126.000000, -1632.000000)">
            <g id="Cloud" transform="translate(126.000000, 1632.000000)">
                <rect id="Rectangle-Copy-11" fill="#FFFFFF" x="0" y="0" width="326" height="282"></rect>
                <g id="Cloud-180x180" transform="translate(73.000000, 51.000000)" fill="#232F3E" fill-rule="nonzero">
                    <g id="Cloud" transform="translate(11.000000, 2.000000)">
                        <path d="M80,-2 C98.6661427,-2 115.43973,8.40884835 124.000634,24.5849785 L124.165,24.9 L124.677938,24.9118235 C144.096187,25.4925372 159.672503,41.279666 159.994903,60.8093738 L160,61.4273321 C160,75.4903036 153.77146,85.4918469 143.51767,91.8734592 C139.973457,94.0792576 136.196862,95.686906 132.421286,96.79907 C130.141562,97.4706037 128.342271,97.8321018 127.253702,97.9743438 L127.059762,97.9933033 L126.865,98.0003507 L110.093,98.0003507 C108.436146,98.0003507 107.093,96.6564863 107.093,94.999632 C107.093,93.4019511 108.34192,92.0959711 109.916727,92.0047247 L110.093,91.999632 L126.65,91.999 L126.943273,91.9501394 C127.072503,91.9272677 127.222616,91.8994389 127.392502,91.866279 L127.568938,91.8313282 C128.515121,91.6412292 129.577483,91.3818667 130.725902,91.0435791 C134.013216,90.0752415 137.299512,88.6763072 140.34733,86.7794485 C148.927915,81.4391831 154,73.294628 154,61.4273321 C154,44.1712037 139.769997,30.2828184 122.424475,30.9162059 C121.225155,30.9600002 120.115138,30.2848252 119.602485,29.1997112 C112.389575,13.9324319 97.096192,4 80,4 C56.7713236,4 37.6324433,22.1855472 36.2627718,45.3551782 C36.1546496,47.1841948 34.4466066,48.4899212 32.6532745,48.1144859 C18.8964178,45.2344784 6,55.7333293 6,69.8151428 C6,79.782328 10.2978699,85.8766918 17.6507952,89.2789368 C20.2228451,90.4690405 23.0095747,91.2390474 25.8138732,91.6618799 L26.4870063,91.7570342 C27.7933579,91.9292039 28.8545985,91.9950587 29.5695068,91.999929 L49.83,91.999632 C51.4868542,91.999632 52.83,93.3427778 52.83,94.999632 C52.83,96.5973129 51.58108,97.9032929 50.0062728,97.9945393 L49.83,98.0003507 L29.7864648,98.0003507 C29.429805,98.0024348 28.9074403,97.9897839 28.2424895,97.9495645 C27.2217581,97.8878258 26.1064104,97.7738093 24.9193042,97.5948173 C21.5888315,97.0926482 18.2646557,96.1741385 15.1312048,94.7242709 C5.74538005,90.3813906 0,82.2344627 0,69.8151428 C0,53.1802278 14.1803671,40.4716819 30.2316845,41.7187372 L30.571,41.747 L30.6562472,41.0959438 C33.9814815,16.9130644 54.4675562,-1.6066054 79.2089518,-1.99381364 L80,-2 Z" id="Stroke-1679"></path>
                        <path d="M64.1714286,69.2 C62.5635172,69.1974222 61.233869,70.4518073 61.1428571,72.0571429 L61.1428571,124.457143 C61.1115499,127.212005 58.8693255,129.428749 56.1142857,129.428571 L46.5714286,129.428571 L46.3142857,128.742857 C44.5198469,123.682174 39.3415516,120.649282 34.0498891,121.559683 C28.7582265,122.470084 24.8912495,127.059165 24.8912495,132.428571 C24.8912495,137.797978 28.7582265,142.387059 34.0498891,143.29746 C39.3415516,144.207861 44.5198469,141.174969 46.3142857,136.114286 L46.5714286,135.428571 L56.0571429,135.428571 C62.1638342,135.428571 67.1142857,130.47812 67.1142857,124.371429 L67.1142857,72.2857143 C67.1798806,71.474053 66.8960268,70.6729676 66.3340268,70.0836861 C65.7720268,69.4944045 64.9852858,69.1729245 64.1714286,69.2 Z M36.0285714,137.542857 C33.2513681,137.542857 31,135.291489 31,132.514286 C31,129.737082 33.2513681,127.485714 36.0285714,127.485714 C38.8057747,127.485714 41.0571429,129.737082 41.0571429,132.514286 C41.0415328,135.284997 38.7992831,137.527247 36.0285714,137.542857 Z" id="Shape"></path>
                        <path d="M83.9142857,154.314286 L83.2571429,154.057143 L83.2571429,64.1714286 C83.1059141,62.6199473 81.8016915,61.4366709 80.2428571,61.4366709 C78.6840228,61.4366709 77.3798001,62.6199473 77.2285714,64.1714286 L77.2285714,154.057143 L76.5714286,154.314286 C71.4890311,156.103355 68.4361758,161.2953 69.3436748,166.606419 C70.2511738,171.917537 74.8547654,175.801243 80.2428571,175.801243 C85.6309489,175.801243 90.2345405,171.917537 91.1420395,166.606419 C92.0495385,161.2953 88.9966832,156.103355 83.9142857,154.314286 L83.9142857,154.314286 Z M80.2571429,169.714367 C78.2091592,169.725856 76.3563907,168.501086 75.5646308,166.612307 C74.7728709,164.723528 75.1984577,162.543691 76.6425157,161.091428 C78.0865737,159.639165 80.2639643,159.201235 82.1571992,159.982281 C84.050434,160.763327 85.2857143,162.609127 85.2857143,164.657143 C85.2857143,167.439006 83.0389614,169.698569 80.2571429,169.714367 Z" id="Shape"></path>
                        <path d="M124.457143,121.457143 C119.798676,121.483229 115.659014,124.433595 114.114286,128.828571 L113.857143,129.514286 L104.371429,129.514286 C103.032803,129.514307 101.749418,128.980593 100.805552,128.031364 C99.8616861,127.082136 99.3352513,125.795746 99.3428571,124.457143 L99.3428571,72.2857143 C99.1916284,70.734233 97.8874057,69.5509566 96.3285714,69.5509566 C94.7697371,69.5509566 93.4655144,70.734233 93.3142857,72.2857143 L93.3142857,124.457143 C93.3142857,130.563834 98.2647372,135.514286 104.371429,135.514286 L113.857143,135.514286 L114.114286,136.2 C116.003256,141.481001 121.554946,144.503198 127.015589,143.223136 C132.476232,141.943074 136.106466,136.768487 135.451712,131.198166 C134.796958,125.627844 130.065774,121.436086 124.457143,121.457143 Z M124.457143,137.542857 C122.418235,137.566028 120.567171,136.355656 119.770807,134.478561 C118.974443,132.601467 119.390447,130.429283 120.824003,128.97925 C122.257559,127.529216 124.424846,127.088415 126.310919,127.863275 C128.196993,128.638135 129.42844,130.475247 129.428571,132.514286 C129.428749,135.269326 127.212005,137.51155 124.457143,137.542857 L124.457143,137.542857 Z" id="Shape"></path>
                    </g>
                </g>
            </g>
        </g>
    </g>
</svg>